<svg width="35" height="35" viewBox="0 0 35 35" fill="none" xmlns="http://www.w3.org/2000/svg">
<g clip-path="url(#clip0_13_67)">
<path d="M7.29167 21.875H4.375V27.7083C4.375 29.3125 5.6875 30.625 7.29167 30.625H13.125V27.7083H7.29167V21.875ZM7.29167 7.29167H13.125V4.375H7.29167C5.6875 4.375 4.375 5.6875 4.375 7.29167V13.125H7.29167V7.29167ZM27.7083 4.375H21.875V7.29167H27.7083V13.125H30.625V7.29167C30.625 5.6875 29.3125 4.375 27.7083 4.375ZM27.7083 27.7083H21.875V30.625H27.7083C29.3125 30.625 30.625 29.3125 30.625 27.7083V21.875H27.7083V27.7083ZM17.5 11.6667C14.2771 11.6667 11.6667 14.2771 11.6667 17.5C11.6667 20.7229 14.2771 23.3333 17.5 23.3333C20.7229 23.3333 23.3333 20.7229 23.3333 17.5C23.3333 14.2771 20.7229 11.6667 17.5 11.6667ZM17.5 20.4167C15.8958 20.4167 14.5833 19.1042 14.5833 17.5C14.5833 15.8958 15.8958 14.5833 17.5 14.5833C19.1042 14.5833 20.4167 15.8958 20.4167 17.5C20.4167 19.1042 19.1042 20.4167 17.5 20.4167Z" fill="black"/>
</g>
<defs>
<clipPath id="clip0_13_67">
<rect width="35" height="35" fill="white"/>
</clipPath>
</defs>
</svg>
